<?xml version="1.0" encoding="utf-8"?>
<!-- Generator: Adobe Illustrator 23.0.3, SVG Export Plug-In . SVG Version: 6.00 Build 0)  -->
<svg version="1.1" xmlns="http://www.w3.org/2000/svg" xmlns:xlink="http://www.w3.org/1999/xlink" x="0px" y="0px"
	 viewBox="0 0 1000 1000" style="enable-background:new 0 0 1000 1000;" xml:space="preserve">
<style type="text/css">
	.st0{display:none;}
	.st1{display:none;fill:#FFFFFF;stroke:#000000;stroke-miterlimit:10;}
	.st2{fill:#28282B;}
	.st3{fill:none;}
	.st4{fill:#F1C40F;}
</style>
<g id="Calque_2" class="st0">
</g>
<g id="Calque_1">
	<rect x="-2.6" y="-1.4" class="st1" width="1000" height="1000"/>
	<g>
		<g>
			<path class="st2" d="M344.8,746.5c9.9-5.8,20.9-8.8,33.1-8.8v59.8h-15.5c-14.1,0-24.7,3-31.7,9.1c-7.1,6.1-10.6,16.7-10.6,31.9
				v85.6h-56.5V739.8H320v30.7C326.6,760.4,334.9,752.4,344.8,746.5z"/>
			<path class="st2" d="M828.2,918.6c-12.6-5.5-22.5-13.1-29.7-22.6c-7.3-9.6-11.4-20.3-12.2-32.2h55.9c0.7,6.4,3.6,11.6,8.9,15.5
				c5.3,4,11.8,6,19.5,6c7.1,0,12.5-1.4,16.4-4.1c3.9-2.8,5.8-6.3,5.8-10.7c0-5.3-2.8-9.2-8.3-11.7c-5.5-2.5-14.4-5.3-26.8-8.4
				c-13.2-3.1-24.2-6.3-33.1-9.7c-8.8-3.4-16.4-8.8-22.8-16.2c-6.4-7.4-9.6-17.4-9.6-29.9c0-10.6,2.9-20.2,8.8-28.9
				c5.8-8.7,14.4-15.6,25.8-20.7c11.3-5.1,24.8-7.6,40.5-7.6c23.1,0,41.4,5.7,54.7,17.2c13.3,11.5,21,26.7,23,45.6h-52.2
				c-0.9-6.4-3.7-11.5-8.4-15.2c-4.7-3.7-11-5.6-18.7-5.6c-6.6,0-11.7,1.3-15.2,3.8c-3.5,2.5-5.3,6-5.3,10.4c0,5.3,2.8,9.3,8.4,11.9
				c5.6,2.6,14.4,5.3,26.3,7.9c13.7,3.5,24.8,7,33.4,10.4c8.6,3.4,16.1,8.9,22.6,16.5c6.5,7.6,9.9,17.8,10.1,30.6
				c0,10.8-3,20.4-9.1,28.9c-6.1,8.5-14.8,15.2-26.1,20c-11.4,4.8-24.5,7.3-39.5,7.3C855.1,926.9,840.7,924.1,828.2,918.6z"/>
		</g>
		<path class="st2" d="M904.2,449.7"/>
		<g>
			<path class="st3" d="M716.9,681.9c-2.7-6.8-5.1-15.9-5.1-17.9c0-0.1-0.1-1.2-0.3-2.7c-0.3-1.8-1.3-3.1-2.9-3.9
				c-0.7-0.3-1.4-0.6-2.2-0.9c-8.5-2.9-15.5-7.9-21.9-14.1c-4.2-4.1-8.3-8.2-12-12.7c-0.2-0.3-0.4-0.5-0.6-0.7c-1-1-2-1-2.5,0.3
				c-0.5,1.3-1.3,2.5-1.5,3.9c-1.2,5.7-3.2,11.3-3.6,17.1c-0.2,2.4-0.4,4.9-0.6,7.3c-0.2,1.3-1.4,1.7-2.3,0.9
				c-0.9-0.8-1.8-1.6-2.7-2.5c-5.1-5-11.3-7.8-18.5-8c-4-0.1-7.9-0.2-11.9,0.5c-0.3,0.1-0.6,0.1-0.9,0.1c-3.3-0.1-6.7,0-10.1,0.4
				c-2.9,0.3-5-1.2-6.5-3.5c-1-1.4-1.4-3.1-1.1-4.9c0.3-1.4,0.5-2.8,1.1-4c2.2-4.5,4.3-9.2,8.3-12.6c5.9-5.1,10.9-11.3,16.1-17
				c2-2.2,3.3-4.8,4.1-7.7c0.4-1.6,0.8-3.2,1-5c0.9-7.5,1.2-15,0.5-22.4c-0.1-0.5-0.2-0.9-0.3-1.4c-0.6-4.7-3.1-7.1-7.8-8.1
				c-8.3-1.6-16.4-4.2-23.4-9.2c-5.4-3.8-10.5-8-15.3-12.5c-0.5-0.5-0.8-0.9-1.4-1.3c-8.1-6.5-14.4-14.6-20-23.3
				c-3.1-4.8-5.7-9.8-8.1-15c-1.1-2.3-1.6-5-1.8-7.6c-0.4-5.9-0.9-12-0.7-17.9c0.2-5.5,0.6-11,2-16.4c1.4-5.7,2.5-11.4,3.4-17.1
				c0.5-3.2,1.7-6.2,2.9-9.2c1.4-3.4,3-6.8,4.5-10.1c0.5-1.3,1.3-2.4,1.2-3.9c-0.7-0.5-1.2,0-1.5,0.4c-4.7,4.2-9,8.8-12.3,14.2
				c-3.9,6.6-8.1,13.1-10.9,20.2c-2.3,5.9-4.5,11.7-5.9,17.8c-1.4,6.1-3.2,12.2-4,18.4c-0.2,1.4-0.4,2.7-0.5,4.1
				c-0.2,2.9-0.5,5.8-0.5,8.7c-0.5,9.1,0.8,18,3.8,26.7c0.7,2.2,1.9,4.1,3.2,6.1c2.5,4.1,5,8.1,7,12.4c3.2,6.5,5.3,13.3,6.1,20.6
				c0.5,3.8,0.7,7.7,0.8,11.4c0,1.3,0,2.4,0.2,3.7c1.3,7.6,0.2,15-1.4,22.4c-0.3,1.2-1.3,8.2-3.4,15.8
				c-8.2,28.9-21.8,37.7-26.1,62.5c-0.4,2.2-0.7,4.3-0.8,6.3c14.1,0.6,28.3,0.9,42.8,0.9C619.9,691.5,668.5,688.3,716.9,681.9z"/>
			<path class="st3" d="M770.9,644.8c-0.1-0.5-0.5-0.8-0.9-0.8c-2.2,0.1-3.5,1.6-5,3.3c1.8-0.6,3.7-1.2,5.5-1.8
				C770.8,645.4,770.9,645,770.9,644.8z"/>
			<path class="st2" d="M530.2,684.3c4.3-24.7,18-33.5,26.1-62.5c2.1-7.6,3.2-14.6,3.4-15.8c1.6-7.4,2.7-14.8,1.4-22.4
				c-0.2-1.3-0.2-2.4-0.2-3.7c-0.1-3.8-0.4-7.7-0.8-11.4c-0.8-7.2-2.9-14.1-6.1-20.6c-2.1-4.3-4.5-8.4-7-12.4c-1.3-2-2.4-4-3.2-6.1
				c-3-8.7-4.2-17.6-3.8-26.7c0.1-3,0.4-5.9,0.5-8.7c0.1-1.4,0.3-2.8,0.5-4.1c0.8-6.2,2.6-12.3,4-18.4c1.4-6.1,3.7-12,5.9-17.8
				c2.8-7.1,7-13.6,10.9-20.2c3.2-5.4,7.6-10,12.3-14.2c0.4-0.4,0.8-0.9,1.5-0.4c0.1,1.4-0.6,2.6-1.2,3.9c-1.5,3.3-3.2,6.7-4.5,10.1
				c-1.2,3-2.4,6-2.9,9.2c-0.9,5.8-2,11.4-3.4,17.1c-1.4,5.4-1.8,10.9-2,16.4c-0.2,6,0.4,12,0.7,17.9c0.2,2.6,0.7,5.2,1.8,7.6
				c2.4,5.1,5,10.2,8.1,15c5.6,8.7,11.9,16.8,20,23.3c0.5,0.4,0.9,0.8,1.4,1.3c4.9,4.5,9.9,8.7,15.3,12.5c7,5,15.1,7.6,23.4,9.2
				c4.8,1,7.2,3.4,7.8,8.1c0.1,0.5,0.2,0.9,0.3,1.4c0.7,7.5,0.5,15-0.5,22.4c-0.2,1.7-0.6,3.3-1,5c-0.7,2.9-2.1,5.5-4.1,7.7
				c-5.2,5.8-10.3,11.9-16.1,17c-4,3.4-6.1,8.1-8.3,12.6c-0.6,1.2-0.8,2.6-1.1,4c-0.4,1.8,0.1,3.4,1.1,4.9c1.4,2.3,3.6,3.8,6.5,3.5
				c3.4-0.4,6.8-0.5,10.1-0.4c0.3,0,0.6,0,0.9-0.1c4-0.6,7.9-0.5,11.9-0.5c7.2,0.2,13.3,3.1,18.5,8c0.9,0.9,1.8,1.7,2.7,2.5
				c1,0.8,2.2,0.4,2.3-0.9c0.3-2.4,0.5-4.9,0.6-7.3c0.5-5.9,2.4-11.4,3.6-17.1c0.3-1.4,1-2.6,1.5-3.9c0.5-1.3,1.5-1.3,2.5-0.3
				c0.3,0.3,0.5,0.5,0.6,0.7c3.7,4.5,7.8,8.7,12,12.7c6.4,6.1,13.4,11.2,21.9,14.1c0.7,0.3,1.4,0.6,2.2,0.9c1.6,0.8,2.6,2.1,2.9,3.9
				c0.2,1.5,0.3,2.6,0.3,2.7c-0.1,2,2.4,11.1,5.1,17.9c2.5-0.3,5-0.7,7.5-1c1.4-4.7,2.9-9.4,3.4-14.4c0.2-2.2,0.8-4.2,1.3-6.3
				c0.5-1.9,1.5-3,3.5-3.1c5.4-0.4,10.5-1.7,15.8-3.1c1.6-0.5,3.2-0.7,5-0.3c7.3,2,14.6,1.5,21.9,0c2.4-0.5,4.5-0.2,6.7,0.9
				c1.7,0.8,3.4,1.4,5.1,2.1c4.5,1.7,8.7,1,12.9-1.2c1.9-1,3.6-2.3,5.1-3.9c3.3-3.4,6-7.3,7.4-12c1.4-4.3,2.5-8.6,3.2-13
				c0.2-0.5,0.4-1.2-0.3-1.6c-0.3,0.1-0.7,0.2-0.8,0.4c-0.5,1.3-1.2,2.5-1.6,3.8c-1.5,4.5-3.7,8.7-6.5,12.6
				c-2.1,2.9-4.8,5.3-7.9,6.9c-5,2.5-10,2.6-14.9-0.5c-2.9-1.8-4.9-4.6-6.5-7.6c-1-1.8-0.6-3.5,0.7-5c2-2.3,4.1-4,7.1-4.8
				c2.1-0.6,4.1-1.2,6.2-1.8c3.5-1.2,6.8-2.9,9.5-5.5c0.5-0.4,0.9-0.8,0.5-1.5c-0.8-0.2-1.4,0.4-2.1,0.7c-3.1,1.9-6.6,2.5-10,3.2
				c-2.4,0.5-3.2-0.4-2.5-2.7c0.5-1.6,1.1-3.2,1.7-4.8c2.2-5,3-10.3,3.7-15.6c0.1-0.5,0-0.9-0.1-1.4c0-0.2-0.4-0.4-0.6-0.5
				c-0.1,0-0.3,0.1-0.4,0.2c-0.2,0.4-0.5,0.7-0.6,1.2c-1.7,4.4-3.3,8.8-5.1,13.3c-2.1,4.9-5,9.2-8.7,12.9c-2.3,2.3-4.7,2.8-7.6,1.5
				c-2.4-1-4.7-2.2-6.9-3.5c-0.5-0.3-1-0.3-1.2,0.3c-0.1,0.2,0,0.6,0.2,0.8c1.2,1.4,2.4,2.7,3.7,4.1c2,2.3,1.9,3.5-0.5,5.3
				c-2.1,1.6-4.3,3-6.8,4c-9.1,3.8-18.3,7.1-28.2,7.9c-6.1,0.5-12.3,0.5-18.1-1.7c-1.2-0.5-2.3-0.7-3.5-1.1c-4.3-1.3-8.3-3.2-11.8-6
				c-5.2-4.2-10.5-8.6-15.1-13.4c-5.2-5.3-9.4-11.3-12.5-18c-1.4-3.1-1.8-6.3-1.4-9.8c0.8-6.9,4.1-12.4,9.6-16.6
				c4.2-3.2,8.5-6.1,12.7-9.2c3.6-2.6,7.1-5.2,9.9-8.8c4.6-5.8,7.5-12.3,8.9-19.5c0.8-4,1.4-7.8,2-11.8c1.3-7.4,0.7-14.7-0.4-22
				c-0.2-1.4-0.7-2.7-1.2-4c-0.5-1.4-1.6-2.2-3.2-2c-0.5,0-0.9,0.1-1.4,0.2c-3.2,0.6-5.7-0.8-7.5-3.3c-0.9-1.2-1.5-2.6-2.1-4.1
				c-1.4-3.8-2.1-7.7-2.3-11.7c-0.3-3.7-0.5-7.4-1-11c-0.5-4.1-2.3-7.3-6.4-8.8c-1.4-0.5-2.5-1.4-3.8-1.8c-3.1-1.2-5.8-3-8.1-5.1
				c-8.6-7.9-16.8-16.2-23.1-26.1c-0.8-1.3-1.7-2.5-2.6-3.8c-0.7-1-1.6-1.8-2.8-2.3c-2.2-0.9-4.1-0.3-5,1.8
				c-0.5,1.2-0.7,2.3-0.8,3.6c-0.1,2.1,0.1,4.1,0.6,5.9c0.9,3,1.7,6,2.7,8.8c2.1,6.3,2.1,12.6-0.1,18.9c-2.3,6.5-2.2,13-0.5,19.5
				c1.2,4.2,2.9,8.4,5.1,12.3c4,6.8,7.8,13.5,12,20.2c3.4,5.6,5.1,11.7,6.7,18c1.4,5.9,0.6,11.9-0.2,17.8c-0.4,2.5-0.7,5.1-1.4,7.7
				c-0.8,3.2-1.7,6.5-2.3,9.8c-0.1,0.6-0.1,1.5-1.4,1.4c0-2.6,0.2-5.2,0-7.8c-0.3-4-1.9-7.3-5.1-9.8c-5.1-3.9-10.5-7.4-16.1-10.6
				c-8-4.7-15.4-10.1-21.8-16.8c-2.8-2.9-5.7-5.7-8.4-8.6c-3.1-3.2-5.9-6.8-8.2-10.5c-5.3-8.6-8.9-17.8-11.4-27.5
				c-3-11.7-3.8-23.5-0.7-35.5c1.5-6,3.1-11.9,4.5-17.9c1.3-5.2,2.3-10.5,1.3-16c-0.2-0.7-0.2-1.5-0.2-2.3c0-13.3-6.4-24-14.7-33.8
				c-1.2-1.4-2.2-1.5-3.5-0.3c-2.5,2.3-5,4.6-7.1,7.2c-5.2,6.8-10.2,13.8-15.2,20.7c-2.2,3-4.1,6.2-5.2,9.7c-2.3,6.9-5,13.5-7,20.5
				c-2.7,9.6-4.1,19.6-6.1,29.3c-1.4,6.9-2.3,14-4.3,20.7c-0.8,2.7-1.1,5.7-1.4,8.6c-0.6,5.5-1.2,11.1-2.4,16.4
				c-2.2,8.9-4.9,17.8-7.4,26.6c-2.6-13.6-5-27.1-6.8-40.7c-1.2-9-2.7-17.9-2.3-27c0.3-6.7-0.6-13.2-1.4-19.7
				c-1.2-11.2-2.7-22.3-4.1-33.4c-1.2-10.2-2.8-20.4-5.9-30.2c-0.9-2.6-1.7-5.2-2.3-7.9c-3.2-13.7-8.5-26.6-15.5-38.8
				c-1.7-2.9-3.2-6-4.9-8.8c-2-3.5-4.2-6.8-7-9.6c-1.9-2-1.8-2.3-0.1-4.1c1.2-1.2,2.3-2.4,3.5-3.6c3.7-3.8,6.7-8,8.6-13
				c0.7-1.9,1.6-3.6,2.5-5.4c8.3-16.8,11.6-34.4,9.2-53.1c-0.4-3.2-1-6.3-1-9.6c-0.1-6.5-1.4-12.8-2.3-19.2
				c-1.5-12.4-4.6-24.4-5.9-36.8c-1.2-11.2-3.1-22.2-4.7-33.3c-0.1-0.5-0.2-0.9-0.2-1.4c-0.3-10-0.6-20,0.2-29.9
				c0.7-8.7,1.5-17.4,1.7-26.1c0-2.4,0.5-4.9,0.8-7.3c0.2-1.1,0.7-2.2-0.2-3.1c-0.5-0.5-1.6,0.5-2.3,2.4c-0.3,1-0.6,2-0.8,3.1
				c-0.8,3.7-1.4,7.5-1.5,11.4c-0.1,2.5-0.4,5.1-0.6,7.8c-0.8,7.8-2.1,15.5-2.1,23.3c0,6.4,0.1,12.9-0.1,19.3
				c-0.3,9.1,1.1,18.1,1.2,27.1c0,0.2,0,0.3,0,0.5c0.5,6,1.2,12.2,1.5,18.3c0.6,10.2,1.3,20.5,1.8,30.7c0.6,11.4,0,22.7-1.1,34
				c-0.4,3.5-0.7,7-1.2,10.5c-0.8,6.8-3,13.2-4.4,19.7c-2.3,10.2-6.8,19.4-11.4,28.6c-3.8,7.6-8.7,14.5-14.4,20.7
				c-3.5,3.8-5,8.4-3.7,13.6c2,8.1,6.3,14.2,14.3,17.3c1.2,0.5,2.3,0.8,3.5,1.2c3.8,1.1,7,3.2,9.5,6.2c5.5,6.8,9.3,14.4,10.8,23.1
				c1.4,8.1,1.1,16.2,0.5,24.3c-0.3,3.8-0.6,7.6-0.6,11.4c0.1,5-0.6,9.7-1.5,14.6c-1.4,6.8-2.5,13.6-3.8,20.4
				c-1,5.6-2.3,11.1-3.7,16.6c-2.8,10.9-7.4,21.2-12.2,31.3c-4.9,10.2-9,20.8-13.8,31.1c-6.4,13.8-8.9,17.1-9,20.3c0,0.1,0,1,0.2,2
				c1.6,11.7,14.2,19.8,26.3,30.9c8.1,7.5,13.4,12.3,17.2,19.4c6.6,12.1,4.2,22,3.6,39.7c-0.3,10.9-0.6,22.7,0.2,33.5
				c15.1,1.3,30.5,2.3,46,3C529.6,688.7,529.8,686.6,530.2,684.3z M770,644c0.5,0,0.8,0.4,0.9,0.8c0,0.2-0.2,0.6-0.4,0.7
				c-1.8,0.6-3.7,1.2-5.5,1.8C766.5,645.6,767.9,644,770,644z"/>
			<path class="st2" d="M313.9,655c0.2-0.4,0.3-0.9,0.5-1.3c2.2-6.2,4.1-12.5,5.6-18.9c2.5-10.6,6.7-20.7,13-29.8
				c1-1.4,1.9-2.8,2.6-4.3c4.4-8.7,9-17.4,13.2-26.3c4-8.7,6.2-17.9,6.1-27.6c0-3.3-0.5-6.8-0.7-10.1c-0.5-7-1.1-14-3.5-20.7
				c-1.1-2.9-2.3-5.7-4.1-8.2c-2-2.7-4.1-5.3-6.5-7.8c-5.8-5.8-12.2-10.7-18.8-15.5c-4.1-3-8.6-5.4-13.4-6.9
				c-1.3-0.4-2.5-0.9-3.8-1.5c-6-3-12.3-4.8-18.8-6.1c-4.7-0.9-9.3-1.9-14-2.9c-0.5-0.1-0.8-0.4-0.8-0.9c0-0.2,0.3-0.5,0.5-0.7
				c1.9-1.3,3.9-2.4,5.9-3.6c5.4-3.2,9.6-7.7,12.4-13.3c0.5-1.2,1-2.3,1.1-3.5c0-1.3-0.8-2.3-2-2.8c-0.9-0.4-1.8-0.3-2.7-0.1
				c-7.9,1.7-15.9,3.3-23.8,5.2c-6.4,1.4-12.8,3.3-19.4,3.9c-6.6,0.5-13.1,1.4-19.7,0.8c-6.3-0.5-12.5-1-18.8-1.4
				c-6.1-0.3-12.3-0.6-18.4-1c-1.1,0-2.1-0.3-3.2-0.5c-7.6-1.2-15-3.2-22.4-5c-4.4-1.1-8.8-2.4-12.9-4.8c-5.1-3-9.7-6.5-12.2-12.2
				c-0.3-0.5-0.6-1-1-1.5c0-0.1-0.3-0.2-0.4-0.2c-0.2,0.1-0.5,0.3-0.6,0.5c-0.2,0.7-0.3,1.5-0.5,2.3c-0.5,1.3-0.7,2.6-1.4,3.9
				c-1.1,2.2-2.9,3.5-5.1,4.4c-1.9,0.7-3.2-0.4-4.8-1c-0.2-0.1-0.3,0.1-0.5,0.1c-0.1,0.3-0.3,0.5,0.1,0.4c1.3,3.6,3.6,6,7.5,6.7
				c1,0.2,2.1,0.5,3.2,0.5c2.4,0.2,4.5,1.1,6.3,2.6c5.8,4.8,12.2,8.9,17.5,14.2c4,4,8.8,6.6,14.4,7.7c3.4,0.6,6.9,1.2,10.5,1.3
				c10.4,0.2,20.4-2.2,30.3-5c4.7-1.4,9.3-1.7,14.1-1.2c1.2,0.1,2.3,0.4,3.6,0.5c6.2,0.5,12.1,1.9,17.8,4.5c0.6,0.3,1.4,0.6,2.1,0.9
				c8.8,3.2,16.2,8.6,22.9,15.1c1.8,1.7,3.3,3.5,4.8,5.6c5.5,7.9,8.2,16.7,8.3,26.3c0,4.1,0.1,8,0.2,12c0.3,9.5-0.6,18.9-1.7,28.4
				c-0.5,5-1.5,10-2.5,15c-0.9,4.3-2.2,8.6-2.9,13c-1,6.1-2.3,12.1-4.1,17.9c-1.5,5-2.8,10.1-4.7,15c-2.5,6.3-5.1,12.6-7.7,18.8
				c9,3.8,17.7,7.1,25.7,10C295.3,649,304.5,652.1,313.9,655z"/>
			<path class="st2" d="M750.1,354.9c-1.3-3.3-2.4-6.6-3.7-9.9c-0.2-0.6-0.5-1.2-0.7-1.7c-0.1-0.3-0.5-0.5-0.7-0.5
				c-0.2,0-0.5,0.4-0.5,0.5c0.1,0.7,0.2,1.5,0.3,2.3c0.7,4.7,1.6,9.4,2.2,14.1c1,9.3,1.8,18.7,2.6,27.9c0.3,3.1,0.4,6.1-0.1,9.2
				c-0.5,3.3-0.4,6.8-0.5,10.1c-0.3,6.9,2.2,12.9,6.4,18.2c4.2,5.4,8.3,11.1,12.3,16.7c3.5,5,6,10.3,7.8,16c0.7,2.2,1.5,4.3,2.3,6.5
				c1.6,4.8,3.7,9.4,5.7,14.1c2.3,5.2,4.1,10.5,5.7,16c1.3,4.4,3.2,8.6,4.7,13c1.4,4.3,2.3,8.8,3.7,13.3c2.1,6.9,4.6,13.3,7.8,19.7
				c1.9,3.8,3.7,7.7,5,11.8c1.4,4.5,2.3,9.2,4.4,13.5c0.8,1.7-0.1,2.8-1.9,2.4c-4.8-1-9.3-0.5-13.5,1.5c-3.6,1.7-7.1,1.5-10.7,0.5
				c-1.6-0.5-3.2-1-4.8-1.6c-4.3-1.6-8.7-2.8-13.3-3.9c-5.8-1.4-10.9,0.1-16,2.6c-1.4,0.7-2.6,1.6-3.6,2.8
				c-3.2,3.8-5.8,7.9-7.8,12.4c-0.1,0.4-0.1,0.8-0.1,1.3c1.1,0.1,1.3-0.8,1.6-1.4c1.5-2.3,3.5-4.2,5.7-6c2.5-2.1,5.3-3.7,8.7-3.9
				c3.5-0.2,7-0.2,10.5,0.8c5.8,1.7,11.5,3.3,16.9,5.9c5.5,2.6,11,2,16.3-0.7c1.4-0.7,2.5-1.6,3.9-2.4c1.5-0.9,3.2-1.2,4.9-0.7
				c2.8,0.8,5,2.3,6.3,5c2.3,5,3.2,10.2,2.6,15.7c-0.1,0.7-0.3,1.5-0.5,2.3c-0.5,1.5-1.1,2-2.7,1.2c-4.1-2.1-7.7-1.1-11.2,1.4
				c-0.1,0.1-0.3,0.2-0.4,0.3c-2.9,2.4-5.9,4.9-8.7,7.4c-0.5,0.4-1.2,0.8-0.9,1.4c0.4,1.1,1.3,0.4,1.9,0.2c1.1-0.3,1.7,0,2.4,0.8
				c3.3,3.7,5.5,3.9,9.4,1c0.9-0.7,1.6-1.4,2.5-2.1c0.7-0.5,1.5-1.1,2.3-1.4c1.1-0.5,2-0.5,2.9,0.5c1.7,1.7,2.1,1.6,3.2-0.5
				c3.9-6.9,5.9-14.4,6.5-22.4c0.5-7.2-1-14.1-3.4-20.7c-4.3-11.8-8.8-23.5-15-34.5c-3.2-5.7-5-11.8-4.7-18.5
				c0.2-4-0.1-7.9,0.8-11.9c0.3-1.4,0.2-2.8,0.3-4.1c0.1-1.5,0.3-3.1,0.5-4.6c0.7-5.6,2.7-10.8,5-15.8c2.7-6.1,4.1-12.5,5.5-18.9
				c0.5-2.1,0.7-4.1,1.1-6.3c0.1-0.3-0.1-0.7-0.3-0.8c-0.5-0.3-0.8,0.1-1.1,0.5c-0.5,0.7-1,1.5-1.4,2.3c-2.3,3.6-4.9,7-8,10
				c-2.3,2.3-5,4.1-8,5.3c-2.1,0.7-2.9,0.3-3.2-1.8c-0.6-5.3-1.3-10.6-1.8-16c-0.2-1.6-0.2-3.3,0-5c0.3-3.4,0.9-4.1,4.2-5
				c0.6-0.2,1.2-0.3,1.8-0.4c9.2-1.9,14.5-8,17-16.8c1.7-5.9-3.9-10.7-8.5-10.7c-3.3,0.1-6.4,1.3-8.7,3.8c-3.4,4-6.3,8.4-7.5,13.6
				c-1.7,7.6-2.8,15.1-2.8,22.8c0,5.2,0.2,10.5,0.2,15.7c0,1.3,0.5,2.6-0.4,3.9c-1.1-0.1-1.3-0.9-1.5-1.6c-1.3-2.9-2.5-5.9-3.8-8.8
				c-1.4-3.4-2.9-6.8-4.2-10.2c-2.4-6.2-3.2-12.7-4.6-19.2c-0.5-2.3-0.6-4.5-0.7-6.9c-0.2-4.8,0.7-9.5,1.4-14.2
				c1.1-7.8-0.6-15-4-21.8c-2.1-4.2-5.1-8-8.3-11.5c-1.4-1.6-2.9-3.2-4.1-5C755.3,367.5,752.5,361.3,750.1,354.9z"/>
			<path class="st2" d="M275.4,333c-1.9,0.5-3.8,1.4-5.6,2.2c-3.2,1.4-6.1,3.1-8.7,5.1c-5,4-5,10-0.3,14.2c1.7,1.5,3.7,2.6,6,3.3
				c1.4,0.5,2.9,0.8,4.4,1.1c6.4,1.1,12.4,3.3,18.2,6.1c6.7,3.2,12.1,7.6,15.1,14.8c2,4.8,4.8,9.2,8.2,13.3c3.5,4.1,8,6.2,13.3,6
				c4.6-0.3,9-1.7,12.6-5c2.7-2.4,5.1-5.2,7.4-8.1c0.5-0.7,0.9-1.6,1.3-2.4c1.4-3.2,2.3-6.7,2.1-10.3c-0.3-4.5,0.4-8.8,1.2-13.3
				c0.8-4.1,1.2-8.5,1.7-12.7c-0.1-2.3-0.3-4.3-0.9-6.4c-1.6-4.2-5.4-6-9.6-4.7c-1.8,0.5-3.3,1.4-4.8,2.6c-1.7,1.5-3.4,3.1-5,4.7
				c-1.9,1.8-3.7,3.7-5.5,5.6c-2.2,2.2-4.7,3.5-7.6,4.2c-2.6,0.7-4.6-0.5-5-3.2c-0.2-1.2-0.3-2.4,0-3.6c0.7-3.3,1.7-6.6,3.6-9.4
				c3.2-4.6,6.4-9.3,10-13.7c3.3-4.1,7.3-7.8,10.9-11.8c3.6-3.9,6.3-8.3,7.9-13.3c0.5-1.6,0.8-3.2,0.5-5c-0.4-1.6-1.6-2.7-3.2-2.7
				c-1.4,0-2.7,0.4-4,1.1c-5.8,3.2-11.4,6.7-16.6,10.7c-5.3,4.1-10.3,8.7-15.3,13.2c-5,4.4-10.4,8.1-16.4,10.9
				C285.9,329,280.9,331.4,275.4,333z"/>
			<path class="st2" d="M559.7,337.1c3.2,5.2,7.8,9.5,11.9,14.1c1.3,1.4,3.1,2.5,4.6,3.8c0.2,0.2,0.5,0.2,0.8,0.3
				c0.1,0,0.3-0.1,0.4-0.2c0.1-0.1,0.2-0.3,0.1-0.4c-0.5-0.8-0.9-1.6-1.4-2.3c-6.2-8.2-11-17.2-14.4-27c-3.4-10.1-3.7-20.1-1.8-30.4
				c2-10.5,6.3-19.9,12.5-28.4c5-6.8,10.5-13.3,16.2-19.4c9-9.5,17.3-19.5,23.7-30.9c3.1-5.5,6-11.1,8.2-16.9
				c0.4-0.8,0.7-1.7,1.1-2.5c0.2-0.3,0.5-0.5,0.7-0.5c0.5-0.1,0.8,0.4,0.9,0.8c0.7,4.2,1.3,8.5,2.1,12.7c0.8,4,1.1,7.9,0.7,11.9
				c-0.6,7-0.8,14.1-2.3,21c-0.4,1.8-0.5,3.7-0.7,5.5c-0.1,0.2,0.3,0.5,0.5,0.6c0.3,0.1,0.7-0.1,0.8-0.3c1.5-2.7,2.9-5.5,4.4-8.1
				c5-8.7,7.3-18.5,9-28.3c1.2-6.8,1.9-13.6,3-20.5c1.5-9.4,2.4-18.8,2.5-30.3c0.5-5.5-0.9-12.7-1.9-20.1c-0.9-5.5-2.3-10.7-5-15.7
				c-1.4-2.6-2.6-5.2-3.9-7.8c-2.3-4.6-3.3-9.5-3.7-14.6c0-1.3-0.1-2.5-0.3-3.7c-0.1-0.2-0.5-0.5-0.6-0.5s-0.6,0.2-0.7,0.4
				c-0.4,0.6-0.7,1.4-0.9,2.1c-1.3,5-1.8,9.9-1.3,15.1c0.3,2.4,0.4,4.9,0.5,7.3c0.5,8.9-0.7,17.8-2.3,26.5c-1,5.3-1.5,10.6-3.2,15.8
				c-3.1,9.1-6.1,18.3-10.3,27c-4.2,9-8.2,18.2-14,26.4c-1.2,1.6-2.1,3.4-3.1,5.1c-6.8,12.3-15.4,23.3-24.8,33.6
				c-6.7,7.5-11.9,15.6-15.2,25c-2.3,6.4-3.8,13-3.6,19.8c0.1,4.6,1.2,9.1,2,13.6C552.1,324.1,555.8,330.7,559.7,337.1z"/>
			<path class="st2" d="M804.5,337.1c0.7,1.4,1.6,2.6,2.6,3.8c0.9,1,2.1,1.5,3.3,1.1c2.7-1,5.5-2,8.1-3.2c1.7-0.8,2-3,0.6-4.3
				c-0.5-0.5-1.2-0.9-1.9-1.3c-0.8-0.4-1.7-0.6-2.6-0.9c-0.5-0.2-1.3-0.4-1.4-1.1c-0.1-0.8,0.6-1.1,1.2-1.3c2.5-0.7,4.3-2.3,5.4-4.7
				c1.2-2.4,2.4-4.9,3.6-7.4c0.7-1.5,1.3-3.2,1.4-4.9c0.1-0.9-0.1-1.8-1-2.3c-0.8-0.5-1.5-0.2-2.2,0.3c-2.5,1.7-5,3.5-7.6,5.2
				c-1.2,0.9-1.9,2-2.2,3.4c-0.2,1.1-0.6,2.1-1.4,2.8c-0.5,0.5-1.4,0.4-1.5-0.2c-1.3-3.4-0.2-7.4,2.6-9.5c1.1-0.8,2.3-1.5,3.4-2.3
				c3.9-3,5.4-6.9,3.8-11.7c-1.2-3.6-1.8-7.4-1.9-11.3c0-0.7-0.1-1.5-0.3-2.3c-0.1-0.4-0.5-0.8-0.9-0.8c-0.4,0-0.9,0.4-1.1,0.7
				c-0.5,0.8-0.8,1.6-1.1,2.5c-0.5,2.2-1.2,4.4-1.5,6.7c-0.8,4.8-2.6,9.1-6,12.6c-0.3,0.4-0.5,1.3-1.4,0.5c3.8-8.3,6.8-16.8,9-25.6
				c1-4,2.9-7.7,4.4-11.5c0.1-0.2,0.5-0.5,0.7-0.5s0.5,0.3,0.7,0.5c0.3,0.4,0.5,0.8,0.5,1.3c0.9,4.7,2.4,9.2,4.1,13.6
				c0.4,1,0.6,2.1,0.8,3.2c1.4,6.6,2.1,13.3,2.9,20c1.3,10.5,2,21,1.8,31.6c-0.1,2.3-0.1,4.6-0.5,6.9c-0.5,2.9-0.6,5.8-0.8,8.7
				c-0.3,3.7-0.6,7.4-1.1,11c-0.2,1.1-1.2,1.5-2.1,0.9c-1.4-1-2.7-2.1-4-3.2c-3.8-3.2-7-6.9-9.2-11.4c-0.5-1-0.5-2.4-1.8-3
				c-1.5,1.2-0.4,2.5-0.1,3.7c0.4,1.8,0.9,3.6,1.8,5.2c2.7,5,5.1,10.1,8.5,14.8c1,1.4,1.9,2.9,2.4,4.4c1.9,5.6,3.5,11.2,2.3,17.1
				c-0.3,1.1-0.2,2.2-0.3,3.2c-0.1,1.7-0.4,3.3-1.4,5.3c-2-1.4-3.6-2.7-5.6-4.1c-5.3-3.3-10.5-2.5-15.6,0.7
				c-2.9,1.9-4.2,4.8-4.5,8.2c-0.1,1.3,0.2,2.5,1.4,3.2c1.2,0.7,2.4,0.5,3.5-0.2c1.6-0.9,2.9-2.3,4-3.8c0.6-0.9,1.2-1.8,1.6-2.8
				c1.7-3.5,5-3.5,7.6-1.3c2.1,1.8,4,3.9,5.1,6.4c0.6,1.3,1.2,2.5,1.7,3.8c0.2,0.5,0.5,0.8,1,0.7c0.5-0.2,0.9-0.5,1.1-0.8
				c1-1.5,1.4-3.3,1.9-5.1c2.4-9.4,3.7-18.9,4.7-28.6c0.7-6.8,1.2-13.4,2.4-20.1c1.8-9.9,3-20,3.8-30.1c0.9-11.6-0.5-23.3-1.1-34.9
				c0-0.5-0.1-0.9-0.2-1.4c-0.9-8.4-3.2-16.5-5.2-24.7c-2.3-8.7-3.7-17.8-5.9-26.5c-0.2-0.9-0.3-1.8-0.4-2.7
				c-0.6-5.3-1.3-10.6-1.9-16c-0.3-2.4-0.7-4.9-0.8-7.3c-0.2-5.5-0.2-11-0.8-16.5c-0.4-2.8-0.4-5.6-0.2-8.3
				c0.5-8.2-0.6-16.2-1.4-24.3c-0.2-1.5-0.1-3.2-0.9-4.9c-0.5,0.4-0.7,0.5-0.8,0.8c-0.2,0.9-0.5,1.8-0.5,2.7
				c-0.2,7.3-1.1,14.4-2.1,21.5c-0.8,6.3-1.5,12.8-2.5,19.1c-1,6.3-2.4,12.6-3.6,18.9c-1.3,6.9-2.8,13.9-3.3,20.9
				c-0.5,5.5-0.5,11-1,16.5c-0.5,4.9-0.5,9.8,0.1,14.7c0.4,2.6,0.3,5.2,0,7.8c-0.9,7.9-2.3,15.8-5,23.3c-1.8,5.1-1.7,10.5-0.6,15.9
				C800.7,329,802.3,333.2,804.5,337.1z"/>
			<path class="st2" d="M343.8,431.3c-3.2,1.1-6.5,1.8-9.7,2.7c-2.5,0.7-5,1.3-7.5,2.3c-4.2,1.7-7.8,4.2-10.4,8.1
				c-2.3,3.5-1.4,6.5,2,8.7c2,1.3,4.1,2,6.3,2.7c5.3,1.6,10.4,3.8,14.7,7.4c4.1,3.4,8.2,6.9,12,10.7c1.2,1.2,2.3,2.3,3.8,3.2
				c2.3,1.4,4.2,0.7,5.4-1.5c0.6-1.1,0.9-2.3,1-3.5c0.3-2.6,0.5-5.1,0.9-7.8c1.3-7.4,4.3-13.8,9.9-18.8c4.7-4.2,10-7.7,15.6-10.5
				c4.5-2.3,9-4.6,13.6-6.8c5.7-2.7,10.9-6.2,15.9-10.1c5.9-4.6,10-10.3,12.3-17.4c1.1-3.6,1.6-7.2,2.2-10.8c1-6.9,2-13.6,2.3-20.6
				c0.2-2.6-0.3-5.2-0.6-7.8c-0.3-1.6,0.3-3.4-0.8-4.9c-2.1,0.9-1.2,3.2-1.9,4.7c-0.4,0.7-0.4,1.5-0.5,2.3c-1.3,5.2-3,10.3-5.7,15
				c-3.1,5.3-6.4,10.5-10.5,15.1c-7.4,8.6-15.6,16-25.9,21.1c-1.4,0.6-2.7,1.4-4.1,2.2c-6.7,3.9-13.7,6.9-21.2,8.7
				C356.4,427.4,350.1,429.2,343.8,431.3z"/>
			<path class="st2" d="M631.9,292.3c-0.5,11.3-3.5,21.7-9.6,31.3c-1.5,2.5-3.3,4.8-5,7.2c-0.1,0.2,0.2,0.5,0.3,0.8
				c0.1,0.1,0.4,0.2,0.5,0.1c0.7-0.4,1.4-0.5,2.1-1c7.8-5.4,14.6-11.8,19.6-19.8c6.5-10.5,14.3-19.8,22.1-29.4
				c2.8-3.4,6.6-4.8,11-4.7c4.6,0.1,8.7,1.6,12.8,3.4c4.3,2,8.6,4.1,12.9,6c2.9,1.4,5.8,2.9,8.8,3.8c8.4,2.3,16.8,5,25.7,4.3
				c5,0.5,9.8-0.5,14.9-1.1c4.8-0.5,9.3-2.1,13.1-5.2c1.3-1.1,1.3-1.9-0.3-2.8c-4.7-2.6-9.4-5.3-14.2-7.7c-4.7-2.3-9.6-4-14.7-5.3
				c-9.3-2.5-18.5-4.4-28.1-4c-2.9,0.2-5.9,0-8.7,0.1c-1.7,0.1-3.4,0.1-5,0.4c-6.9,1.3-14,1.9-20.8,3.7c-2.8,0.7-3.5,0.3-4.2-2.6
				c-0.7-2.7-1.1-5.4-1.8-8.1c-1.2-4.4-1.6-8.7-1.4-13.3c0.1-3.1,0.2-6.1,0.6-9.2c0.3-1.6,0.2-3.3,0.3-5c0-0.5-0.1-0.9-0.2-1.4
				c-0.1-0.3-0.4-0.5-0.5-0.6c-0.3-0.1-0.7,0-0.8,0.2c-0.5,0.6-0.8,1.3-1.2,2c-0.9,2.1-1.7,4.3-2.9,6.2c-3.2,5-6,10.3-9.7,15.1
				c-2.1,2.7-4,5.5-6,8.2C635.1,272.4,632.4,282,631.9,292.3z"/>
			<path class="st2" d="M315,230.9c1.2,0.8,2.4,1.3,3.7,1.9c4.6,2.3,8.6,5.2,10.9,10.1c1.1,2.2,2.5,4.1,3.9,6.2
				c2.5,4.1,6.7,5.1,10.6,5.7c4.7-0.5,8.9-1.2,12.6-3.6c4.1-2.6,8.2-5.5,11.4-9.3c6-7,9.2-15.1,10.5-24.2c0.2-1.4,0-2.7-0.4-4.1
				c-1-3.6-2.4-4.9-6.1-5c-3.6-0.1-7.3-0.1-11,0.2c-4.9,0.3-9.6,1.2-14.2,3.5c-4.5,2.3-9.1,4.4-14.1,5.7c-3.8,1-7.7,2.1-11.6,2.4
				c-2.2,0.2-4.2,0.9-6,2.1C311.7,224.8,311.6,228.5,315,230.9z"/>
			<path class="st2" d="M268,112.3c0.5,5.9,1.8,11.4,4,16.9c0.8,2.2,1.6,4.3,2.1,6.6c0.9,4.4,1.7,8.7,2.3,13.2
				c0.6,5.1,1.3,10.3,1.6,15.5c0.5,6.8,0.5,13.5-0.7,20.2c-0.3,1.4-0.4,3-0.5,4.5c0,0.2,0.4,0.6,0.5,0.6s0.6-0.2,0.7-0.4
				c0.5-0.9,1-1.9,1.4-2.9c2.4-6.9,4-13.9,3.7-21.2c-0.1-4.2,0-8.6,0-13.7c5,6,9.5,15.1,11.8,22.1c1.6,5,0.3,9-2.6,12.9
				c-0.7,1-1.6,1.8-2.4,2.7c-2.3,2.6-4.7,5.2-6.9,8c-2.5,3.2-3.9,6.9-3.7,11.1c0,0.3,0.2,0.8,0.4,0.8c0.5,0.1,1.1,0.1,1.3-0.2
				c1.8-2.3,4-4.1,6.7-5.4c6.5-3.2,6.4-3.2,9.4-9.9c0.4-0.7,0.3-2.1,1.5-1.8c0.8,0.2,0.7,1.3,0.9,2c0.6,3.2,1.3,6.3,1.8,9.5
				c0.4,2.3-0.2,4.1-2.2,5.7c-2,1.6-3.8,3.5-5.6,5.4c-0.8,0.8-1.4,2-2.1,3c-0.1,0.1-0.1,0.4,0,0.5c0.2,0.2,0.5,0.5,0.7,0.4
				c1.1-0.5,2.3-0.8,3.3-1.4c4.1-2.3,8.6-4.1,13.2-5.4c1.2-0.4,2.3-0.6,3.5-1.1c3.4-1.3,4-2.1,3.9-5.8c0-0.5-0.1-0.9-0.1-1.4
				c-0.6-7.2-2.2-14.2-4-21.2c-1.5-5.8-4.1-11.2-7.7-16c-4.3-5.9-9-11.6-12.5-18.1c-3-5.5-6.3-10.9-9.3-16.4c-1.3-2.4-2.3-5-3.3-7.6
				c-3.5-9.4-4.7-19-4.4-28.9c0.3-6.8,1.2-13.4,3.5-19.8c0.5-1.3,0.7-2.6,1.1-4c0-0.2-0.3-0.6-0.5-0.7s-0.6-0.1-0.8,0.1
				c-1.4,0.8-2.2,2.2-3,3.4c-6.7,10.5-9.1,21.9-7.6,34.3C267.6,109.6,267.9,111,268,112.3z"/>
			<path class="st2" d="M392.1,209.5c0.4,0.3,0.7,0.5,1.1,0.8c4.1,3.7,6.8,8.1,7.5,13.8c0.5,4.2,0.9,8.5,0.8,12.8
				c-0.2,4.1,0.3,8.3,1.1,12.4c0.6,3.4,1.4,6.9,2,10.4c1.1,6.3,4,11.9,7.7,17c0.2,0.2,0.4,0.5,0.6,0.6c0.2,0.1,0.5,0.3,0.8,0.2
				c0.3-0.1,0.5-0.5,0.5-0.7c-0.2-0.9-0.4-1.9-0.6-2.7c-3.5-9.4-4.1-19.1-3.4-29c0.2-1.7,0.5-3.3,1-5c1.7-6,4.4-11.4,7.5-16.8
				c2.3-4,4.1-8.2,5.9-12.4c1.4-3.1,2.1-6.4,2.3-9.8c0.1-1.5,0.3-3.1,0.5-4.6c0.5-3,0.3-5.9,0-8.7c-0.7-7.1-1.5-14.3-1.4-21.5
				c0.3-8.6,2.1-16.8,6.4-24.3c0.4-0.5,0.6-1.1,0.8-1.6c0.1-0.3-0.2-0.5-0.3-0.8c-0.7-0.1-1.3,0.3-1.8,1c-3,3.6-5.4,7.5-7.2,11.7
				c-3.2,7.7-6.3,15.3-9.6,22.9c-1.7,4-3.4,7.9-6,11.4c-4.7,6.7-9.8,12.9-16.1,18.1C389.4,206.8,389.4,207.3,392.1,209.5z"/>
			<path class="st2" d="M254.7,306.9c4.1,2.6,8.5,4.3,13.4,4.3c3.9,0.1,7.7-0.5,11.4-1c7.5-1,14.1-4.1,20.6-7.8
				c0.3-0.2,0.6-0.7,0.6-1.1c0-0.5-0.5-0.7-1-0.7c-2.9,0-5.9,0-8.7,0c-2.6,0.1-5.2,0.1-7.9,0c-1.8,0-3.6-0.4-5.4-0.9
				c-3.2-1-4.7-3.2-5-6.4c-0.4-4.8,1.5-8.7,4.5-12.2c2.8-3.2,6-5.8,9.7-7.7c4.1-2.1,8.2-4.1,12.3-6.3c1.8-0.9,3.5-2,5-3.2
				c1.4-1.1,1.6-2.6,0.9-4.1c-1-2.3-2.8-3.6-5.2-4.1c-2.7-0.5-5.5-0.4-8.2,0.4c-3.9,1.1-7.5,2.7-10.8,5c-2.5,1.8-5.2,3.2-8,4.5
				c-3.1,1.4-5.7,0.4-7.3-2.6c-1-1.8-1.2-3.8-1.1-5.8c0-1.3,0.2-2.4,0.3-3.7c0-0.3-0.4-0.5-0.5-0.6c-0.1-0.1-0.4-0.1-0.5,0
				c-0.6,0.5-1.2,1-1.7,1.5c-10.9,11.4-15.1,25.3-14.2,40.9C248.3,300.3,250.6,304.3,254.7,306.9z"/>
			<path class="st2" d="M428,244c-2.2,3.9-2.3,7.9-1.4,12.1c0.8,3.5,3,6.1,6.6,7c4.6,1.2,7.6,3.8,9,8.3c0.5,1.6,1.4,3.1,2.4,4.4
				c3.4,4.9,8,5.3,12.5,1.3c2.9-2.6,5-5.7,6-9.6c1.1-4.6,3.3-8.5,7.2-11.4c0.7-0.5,1.4-1.3,1.9-2c0.5-0.6,0-1.6-0.8-1.8
				c-1.1-0.4-2.2,0-3.2,0.3c-1.9,0.5-3.9,1-5.9,1.2c-3,0.2-5.7,1-7.9,3.2c-1.8,1.6-3,1-4.4-0.3c-1.2-1-2-2.2-2.5-3.7
				c-0.8-2.6-0.5-4.1,1.7-5.6c1-0.6,2.1-1.4,3.2-1.8c3.5-1.5,5.6-4.2,6.9-7.7c2.2-5.7,2.7-11.6,2.8-17.6c0.1-2.8-0.3-5.5-0.4-8.3
				c0.1-3.4,0.1-6.8-0.4-10.3c0-1.4-0.2-2.7-0.5-4.1c-0.1-0.6-0.5-1.2-1.2-1.3c-0.6-0.1-1.2,0.5-1.4,1c-0.6,2.1-1.3,4.1-1.6,6.2
				c-0.5,2.6-1.4,5-2.3,7.5c-1.4,4-4.1,6.3-7.7,8.1c-0.5,0.4-1.2,0.5-1.7,0.7c-1.8,0.6-3.2,1.8-4.1,3.4c-0.8,1.4-1.6,2.6-2.3,4
				c-2.2,4.3-4.9,8.5-7.8,12.4C429.8,241.1,428.8,242.5,428,244z"/>
			<path class="st2" d="M586.7,341.6c-0.1,0.3,0.2,0.5,0.4,0.8c0.1,0.1,0.4,0.2,0.5,0.1c1-0.6,2.3-1.2,3.1-2
				c4.1-4.2,8.2-8.3,10.9-13.6c3.6-6.9,6.6-14.2,8.9-21.6c1.4-4.4,2-9,2.3-14c-0.1-0.7-0.2-1.7-0.5-2.8c0-0.2-0.6-0.4-0.7-0.3
				c-0.5,0.5-0.9,0.8-1.2,1.4c-1.3,2.3-3.1,4.2-5.1,5.8c-3,2.3-6,2.2-8.8-0.3c-1.4-1.2-2.5-2.6-3.7-4.1c-0.8-1.1-1.5-2.3-2.3-3.4
				c-1.8-2.5-4.1-4.5-6.9-5.9c-2.7-1.4-5.4-1-7.8,0.8c-2.3,1.7-2.8,4.3-2.4,7c0.2,1.7,1,3.2,2,4.6c1.3,1.9,2.5,3.8,3.9,5.7
				c2.3,3.2,2.5,6.6,1.4,10.1c-0.5,1.4-1,2.6-1.5,3.9c-1.7,4.4-0.9,6.7,3.3,9.1c1.1,0.5,2.2,1.1,3.2,1.7c2.7,1.7,4.1,4.1,4.1,7.3
				c0,2.3-0.7,4.5-1.5,6.7C587.5,339.6,587,340.6,586.7,341.6z"/>
			<path class="st2" d="M679.6,374.6c4.1-0.5,5.8-2.3,5.9-6.7c0-2.4-0.5-4.9-1.1-7.2c-2-8.4-5.3-16.3-8.3-24.3
				c-0.5-1.4-1.4-2.7-2.6-3.8c-1.7-1.5-3.5-1.7-5.5-0.5c-1.3,0.7-2,1.9-2.7,3.1c-2.4,4-4,8.3-5.7,12.5c-2.8,7-6.4,13.5-12,18.8
				c-1.6,1.6-3.1,3.4-4.5,5.2c-0.6,0.6-1.2,1.4-1.5,2.3c-1.3,2.6,0.2,5,3.1,5.2c1.7,0.2,3.3-0.4,5-0.9c5.8-1.8,11.4-3.5,17.6-2.8
				C671.3,375.8,675.4,375.1,679.6,374.6z"/>
			<path class="st2" d="M101.7,388.6c1.9,1.1,2.4,2.6,2.3,4.6c-0.1,1.8,0,3.7,0.1,5.5c0.5,7,3.7,12.1,10.5,14.8
				c3.3,1.4,6.6,2.5,10.1,3.2c4.6,0.8,4.6,0.8,7.7,3.3c1.9-2.7,1.9-2.7,5-3.4c1.1-0.3,2.1-0.5,3.2-0.7c11-2.7,18-9.9,23-19.6
				c0.1-0.2,0.1-0.3,0.1-0.5c-0.1-0.3-0.1-0.7-0.3-0.8c-0.2-0.1-0.6-0.1-0.8,0.1c-1.7,1.4-3.3,2.7-5,4c-4.1,3.2-8.7,5.7-13.9,6.8
				c-6.2,1.3-12.2,0.7-18.1-1.3c-4.2-1.4-6.8-4.1-7.9-8.2c-1-3.2-1.3-6.6-1.1-10c0.2-3-0.3-5.9-1.1-8.7c-0.2-0.6-0.4-1.4-1.6-1.6
				c-0.6,3.9-1.4,7.7-3.3,12.2c-0.4-2.4-0.5-4.1-0.8-5.7c-0.6-3.4-2.3-6.3-5-8.5c-2.9-2.3-6.5-1.2-7.8,2.3c-0.5,1.4-0.6,2.7-0.3,4.1
				C97.1,383.8,98.6,386.8,101.7,388.6z"/>
			<path class="st2" d="M706.8,425.9c8.8,5.6,13.9,13.6,15.1,24c0.1,0.6,0.1,1.3,0.3,1.8c0.1,0.2,0.5,0.5,0.6,0.5
				c0.3,0,0.6-0.3,0.7-0.5c1.1-3.3,1.5-6.9,1.4-10.2c-0.1-7.4-1.3-14.2-4.9-20.6c-0.8-1.4-1.4-2.8-2.1-4.1
				c-6.7-13-16.8-22.1-30.8-26.5c-4.1-1.3-8.4-1.6-12.7-1.1c-1.6,0.2-3.2,0.8-4.9,1.3c-0.2,0-0.4,0.5-0.4,0.7s0.4,0.6,0.5,0.6
				c1.5,0.1,3.1,0.1,4.6,0.3c6.1,0.8,11.4,3.2,14.6,9c1.3,2.3,1.8,5,2.3,7.5c0.5,2.3,1.4,4.2,2.9,6.1
				C697.7,419.1,702,422.8,706.8,425.9z"/>
			<path class="st2" d="M205.6,306.9c2.8-3.3,5.2-6.9,7.4-10.5c1.8-3.1,3.5-6.1,5.3-9.2c4.4-7.5,7.6-15.4,8.7-24.1
				c0.6-4.4,1.5-8.8,2.4-13.2c0.9-4.6,2.9-8.7,5.8-12.4c0.6-0.7,1.1-1.5,1.5-2.3c0.1-0.2-0.1-0.5-0.3-0.8c-0.1-0.1-0.4-0.1-0.5-0.1
				c-0.6,0.3-1.3,0.4-1.7,0.7c-3.6,2.5-7.3,5-10.8,7.8c-7.9,6.2-12.5,14.6-14.1,24.5c-0.7,5-1.5,10-2,15.1
				c-0.8,8.5-2.2,16.7-4.8,24.8c-0.2,0.5-0.5,1.2,0.2,1.7C204.2,308.8,204.9,307.5,205.6,306.9z"/>
			<path class="st2" d="M677.5,436.3c2.1,0.2,4.3,0.2,6.4-0.3c2.9-0.6,5.5-0.4,8.1,0.7c0.5,0.3,1.1,0.5,1.7,0.6
				c1.3,0.3,2.2-0.1,2.5-1.4c0.7-2.3,1.2-4.8,1.1-7.7c0.2-2-0.2-4.2-1.1-6.4c-2.4-6.6-6.9-10.8-14.1-11.6
				c-5.7-0.5-10.8,1.3-15.6,4.4c-1.8,1.2-2.6,2.9-2.6,5c0,3.3,0.9,6.4,2.4,9.3C668.8,433.5,672.5,436,677.5,436.3z"/>
			<path class="st2" d="M186.8,343.7c1.1,0.6,2.3,0.6,3.5,0.6c3.5-0.1,6.9,0.3,10.5,0.8c4.7,0.6,9.3,2.1,14.1,1.9
				c1.4,0,2.7,0.2,4.1-0.1c3-0.4,5-2.5,5.2-5.5c0.1-1.4,0-2.8-0.6-4.1c-1.4-3-2.7-6.1-4.2-9.1c-2.1-4.1-5-5.4-9.5-4.4
				c-0.9,0.2-1.8,0.5-2.6,0.9c-5.8,2.8-11.2,6.2-16.2,10.3c-1.4,1.2-2.6,2.6-3.9,4c-0.5,0.5-0.9,1.3-1.3,1.9
				C185.4,342,185.9,343,186.8,343.7z"/>
			<path class="st2" d="M726.9,525.2c0.7,0.8,1.6,1.5,2.5,2c2,1,4.1-0.1,4.6-2.3c0.4-1.4,0.4-2.8,0.5-4.2c-0.5-5.4-1.2-11-3.1-16.2
				c-1.5-3.9-3.3-7.6-5-11.4c-1.2-2.6-3-5-5-7.1c-2.2-2.3-5.6-1.5-6.8,1.4c-0.6,1.4-0.8,3-0.8,4.5c0,3.7,0,7.4,0,11.1
				c0,2.1,0.4,4,1.4,5.8C718.4,514.7,722.6,519.9,726.9,525.2z"/>
			<path class="st2" d="M776.1,553.7c-0.7,2.3-0.1,4.3,1.9,5.7c2.1,1.4,4.4,2.2,6.9,1.7c8.4-1.6,10.4-5.3,10.2-12.2
				c0.3-2.1-0.4-4.4-1.2-6.8c-1.5-4.6-3.1-9.3-4.8-13.9c-0.6-1.9-1.6-3.6-2.6-5.3c-0.5-0.9-1.4-1.6-2.3-2.3
				c-1.5-1.1-3.2-0.5-4.2,1.2c-0.7,1.3-0.9,2.6-1,4c-0.2,3.1,0.2,6.1,0.9,9.1c1.4,5.7,0.5,10.9-2.5,15.9
				C776.9,551.7,776.4,552.7,776.1,553.7z"/>
			<path class="st2" d="M116.9,355.1c0.7-0.1,1.5-0.3,2.3-0.5c5.1-1.1,10.3-0.9,15.4,0.5c7.4,2.1,13.4,5.9,16.4,13.3
				c0.1,0.3,0.3,0.6,0.5,0.8c0.2,0.2,0.5,0.4,0.7,0.4c0.2-0.1,0.5-0.3,0.6-0.5c0.2-0.5,0.3-0.9,0.3-1.4c-0.1-4.9,1-9.5,2.5-14
				c0.4-1.2,0.4-2.4,0.5-2.7c0.2-4.7-1.6-7.4-4.9-8.9c-3-1.4-6-2.1-9.4-1.3c-3.2,0.7-6.2,1.8-9,3.3c-4.9,2.6-9.6,5.4-14.4,8.1
				c-0.6,0.4-1.3,0.8-1.9,1.3c-0.4,0.3-0.6,0.7-0.4,1.2C116.2,355,116.6,355.1,116.9,355.1z"/>
			<path class="st2" d="M150.7,385c-2.4,1.6-5.1,1.8-7.9,1.2c-2.2-0.5-3.8-1.8-4.4-4.1c-0.5-1.8-1-3.5-1.7-5.2
				c-0.6-1.6-1.9-2.8-3.7-3.1c-1.9-0.4-3.9-0.7-5.9-0.8c-3.4-0.1-6.6,2.4-7,5.4c-0.7,4.3,2.9,9,7.3,9.3c2.3,0.1,4.1,0.6,5.7,2.3
				c2.8,2.9,6.3,4.1,10.4,4c1.1-0.1,2.2,0,3.2-0.1c5.8-1,10.4-3.5,12.7-9.3c1.2-2.8,2.3-5.7,3-8.7c0.3-1.3,0.8-2.6,0-4
				c-1.7,0.1-2,1.6-2.7,2.7c-0.7,1.1-1.2,2.2-1.8,3.2C155.9,380.8,153.5,383.1,150.7,385z"/>
			<path class="st2" d="M314.3,281.1c-2.4-1.5-5-3.1-7.5-4.5c-2.6-1.5-5.4-2.1-8.4-1c-7.1,2.5-11,8-13.8,14.6
				c-0.4,0.9,0,1.8,0.7,2.5c0.7,0.7,1.7,1.3,2.8,1.4c3,0.5,6,1.3,9.1,1.3c7.9-0.4,14.1-3.7,17.9-10.9
				C316.1,283,315.9,282.1,314.3,281.1z"/>
			<path class="st2" d="M779,298.8c2.6,3.2,6.2,4.4,10.1,4.8c1,0.1,1.8-0.4,2.3-1.2c0.5-0.8,0.8-1.6,1.3-2.4
				c3.7-6.9,4.8-14.4,5.7-22.1c0.3-2.3-0.4-4.6-1.4-6.7c-0.5-1.3-1.8-1.4-2.4-0.2c-2.3,4.3-5.8,7.4-9.9,9.9c-2.1,1.3-3.8,3-5.3,5
				c-1.5,1.9-2.3,4-2.2,6.3C777.1,294.6,777.5,296.9,779,298.8z"/>
			<path class="st2" d="M770,621.1c-0.3,0.4-0.4,0.8,0.1,1.2c0.2,0.2,0.6,0.3,0.8,0.2c5.4-2.3,9.6-5.9,11.4-11.7
				c1.5-5-0.5-9.6-5.1-12c-2.3-1.3-4.9-1.9-7.6-1.7c-0.5,0-0.9,0-1.4,0.2c-3.2,0-5.6,1.1-6.4,4.6c-0.8,3.2-3.2,4.7-6.5,4.8
				c-1.8,0-3.7,0.1-5.5,0.2c-0.2,0-0.5,0.3-0.5,0.5c0,0.3,0.1,0.6,0.3,0.8c2.8,2,6,3.2,9.2,4.1c4.1,1,8.4,1.4,12.7,1.4
				c1.3,0.1,1.6,0.6,1.4,1.8C772.5,617.5,771.3,619.3,770,621.1z"/>
			<path class="st2" d="M756.9,595.4c4.1-2.6,8.6-3.8,13.5-3c2.4,0.4,4.9,0.5,7.3,0.7c0.5,0.1,1,0.1,1.1-0.5c0-0.4-0.4-0.9-0.7-1.1
				c-2-1.4-4.2-2.3-6.7-2.9c-4.3-1-8.7-1.2-13.2-0.4c-3.1,0.6-4.6-0.5-5.4-3.5c-0.2-0.7-0.3-1.5-0.5-2.3c-0.1-0.3-0.4-0.5-0.6-0.5
				c-0.3-0.1-0.7,0.1-0.8,0.3c-0.5,1-1.1,2-1.1,3c-0.1,3.6-1.9,6.4-3.8,9.2c-1.2,1.7-2.3,3.3-3.2,5c-0.5,0.8-0.5,1.8,0.1,2.6
				c0.6,0.8,1.6,0.9,2.5,0.7c1.7-0.4,3.1-1.4,4.4-2.3C752.1,598.7,754.4,596.9,756.9,595.4z"/>
			<path class="st4" d="M529.1,695.6c-0.3,11.6,1.8,18-4.1,23.4c-6.6,6.1-19.6,7.4-28,2c-7.9-5-11.6-15.7-13.1-28.3
				c-58.8-5.2-116.8-15.8-171.7-33c-2.2,5-5.7,9-10,12.5c-5,4.1-10.6,5.2-16.9,4.3c-6.6-0.9-12.8-3.1-19-5.2
				c-3.7-1.3-7.4-1.8-11.3-1.6c-3.2,0.1-6,0.8-8.7,2.5c-0.2,0.1-0.4,0.3-0.6,0.4c12.7,5.6,25.4,10.7,38.2,15.3
				c90.3,32.6,190.6,46.4,289.7,46.4c54.1,0,107.8-4.1,159.3-11.5c74.5-10.7,151.2-29.3,224.1-56.7h-127
				c-33.3,7.9-66.7,14.2-99.6,19c-2.5,0.4-5,0.7-7.4,1c-0.7,2.9-0.5,3.5-1,3.6c-0.8,0.2-1.9-1.1-3-3c-47.7,6.4-97.1,9.9-146.9,9.9
				C557.8,696.5,543.5,696.2,529.1,695.6z"/>
			<path class="st4" d="M250.9,655.4c2.7-4.1,4.7-8.7,6.7-13.1c0.3-0.7,0.6-1.4,0.9-2.1C157.9,598.4,62,524.8,43.2,411.6
				c-1.9-11.5-3-23.2-3.1-34.9c-1.3,9.7-2.1,19.6-2.2,29.6c-0.2,13.8,0.9,27.5,3.1,41.1C59,555.7,146.9,628,242.3,671.1
				c0.1-0.4,0.3-0.8,0.5-1.1C245.4,665.1,247.8,660.1,250.9,655.4z"/>
			<path class="st4" d="M497,721c8.4,5.4,21.4,4.1,28-2c5.9-5.4,3.8-11.8,4.1-23.4c-15.1-0.6-30.2-1.6-45.2-2.9
				C485.4,705.3,489.1,716,497,721z"/>
			<path class="st4" d="M722,689.7c0.5-0.1,0.3-0.6,1-3.6c-1.3,0.2-2.6,0.4-4,0.5C720.1,688.6,721.2,689.8,722,689.7z"/>
			<path class="st4" d="M255.1,669.7c3.9-0.2,7.6,0.4,11.3,1.6c6.2,2.2,12.4,4.3,19,5.2c6.2,0.9,11.9-0.3,16.9-4.3
				c4.2-3.5,7.8-7.4,10-12.5c-9.3-2.9-18.6-6-27.7-9.3c-8.7-3.1-17.4-6.5-26-10.1c-0.3,0.7-0.6,1.4-0.9,2.1c-2,4.4-4,9-6.7,13.1
				c-3.1,4.7-5.5,9.6-8,14.5c-0.2,0.4-0.3,0.8-0.5,1.1c1.1,0.5,2.2,1,3.4,1.5c0.2-0.1,0.4-0.2,0.6-0.4
				C249.1,670.5,251.9,669.7,255.1,669.7z"/>
			<g>
				<path class="st4" d="M383.9,720.9v18.8c0,15.6,0,31.3,0,46.9v73.4c0,22.7,5.7,39.1,17.2,49.1c11.5,10,27.4,15,47.9,15h28.8
					v-47.9h-20.2c-6.2,0-10.6-1.2-13.2-3.6c-2.6-2.4-4-6.4-4-11.9v-74c0-15.6,0-31.3,0-46.9v-9.2c-5.3-0.7-10.5-1.5-15.7-2.3
					C410.8,726.1,397.2,723.7,383.9,720.9z"/>
			</g>
			<g>
				<path class="st4" d="M440.4,650c0-10.4,0-20.7,0-31.1c-18.8-9.9-37.7-19.9-56.5-29.8v29.8c0,10.4,0,20.7,0,31.1v22.7
					c18.4,3.8,37.3,7,56.5,9.7V650z"/>
			</g>
		</g>
		<path class="st2" d="M112.2,914.8c-14.4-7.7-25.8-18.7-34-33.1c-8.3-14.3-12.4-31.1-12.4-50.2c0-18.9,4.2-35.6,12.6-50.1
			c8.4-14.4,19.8-25.5,34.4-33.2c14.5-7.7,30.8-11.6,48.9-11.6c18.1,0,34.4,3.9,48.9,11.6c14.5,7.7,26,18.8,34.4,33.2
			c8.4,14.4,12.6,31.1,12.6,50.1c0,19-4.2,35.6-12.7,50.1c-8.5,14.4-20.1,25.5-34.7,33.2c-14.7,7.7-31,11.6-49.1,11.6
			C142.9,926.4,126.6,922.5,112.2,914.8z M188.6,865.6c7.6-7.9,11.4-19.3,11.4-34c0-14.8-3.7-26.1-11.1-34
			c-7.4-7.9-16.5-11.9-27.3-11.9c-11,0-20.2,3.9-27.4,11.7c-7.3,7.8-10.9,19.2-10.9,34.2c0,14.8,3.6,26.1,10.7,34
			c7.2,7.9,16.1,11.9,26.9,11.9C171.8,877.5,181,873.5,188.6,865.6z"/>
		<path class="st2" d="M565,746.5c9.9-5.8,20.9-8.8,33.1-8.8v59.8h-15.5c-14.1,0-24.7,3-31.7,9.1c-7.1,6.1-10.6,16.7-10.6,31.9v85.6
			h-56.5V739.8h56.5v30.7C546.9,760.4,555.1,752.4,565,746.5z"/>
		<path class="st2" d="M642.8,915.3c-14.4-7.7-25.8-18.7-34-33.1c-8.3-14.3-12.4-31.1-12.4-50.2c0-18.9,4.2-35.6,12.6-50.1
			c8.4-14.4,19.8-25.5,34.4-33.2c14.5-7.7,30.8-11.6,48.9-11.6c18.1,0,34.4,3.9,48.9,11.6c14.5,7.7,26,18.8,34.4,33.2
			c8.4,14.4,12.6,31.1,12.6,50.1c0,19-4.2,35.6-12.7,50.1c-8.5,14.4-20.1,25.5-34.7,33.2c-14.7,7.7-31,11.6-49.1,11.6
			C673.5,926.9,657.3,923,642.8,915.3z M719.2,866c7.6-7.9,11.4-19.3,11.4-34c0-14.8-3.7-26.1-11.1-34C712.1,790,703,786,692.3,786
			c-11,0-20.2,3.9-27.4,11.7c-7.3,7.8-10.9,19.2-10.9,34.2c0,14.8,3.6,26.1,10.7,34c7.2,7.9,16.1,11.9,26.9,11.9
			C702.4,877.9,711.6,874,719.2,866z"/>
	</g>
</g>
</svg>
